<?xml version="1.0" encoding="UTF-8"?>
<!DOCTYPE svg PUBLIC "-//W3C//DTD SVG 1.1//EN" "http://www.w3.org/Graphics/SVG/1.1/DTD/svg11.dtd">
<!-- Creator: CorelDRAW 2017 -->
<svg xmlns="http://www.w3.org/2000/svg" xml:space="preserve" width="23.774mm" height="22.5846mm" version="1.1" style="shape-rendering:geometricPrecision; text-rendering:geometricPrecision; image-rendering:optimizeQuality; fill-rule:evenodd; clip-rule:evenodd"
viewBox="0 0 157.84 149.94"
 xmlns:xlink="http://www.w3.org/1999/xlink">
 <defs>
  <style type="text/css">
   <![CDATA[
    .str1 {stroke:#898989;stroke-width:4.98;stroke-linejoin:round;stroke-miterlimit:22.9256}
    .str0 {stroke:#898989;stroke-width:4.98;stroke-linecap:round;stroke-linejoin:round;stroke-miterlimit:22.9256}
    .fil0 {fill:none}
    .fil1 {fill:#FEFEFE}
   ]]>
  </style>
 </defs>
 <g id="Слой_x0020_1">
  <metadata id="CorelCorpID_0Corel-Layer"/>
  <path class="fil0 str0" d="M20.06 29.76l93.1 0c9.66,0 17.57,7.76 17.57,17.24l0 58.62c0,9.48 -7.9,17.24 -17.57,17.24l-35.02 0 -25.88 24.59 0 -24.59 -32.2 0c-9.66,0 -17.57,-7.76 -17.57,-17.24l0 -58.62c0,-9.48 7.9,-17.24 17.57,-17.24z"/>
  <line class="fil0 str0" x1="21.22" y1="97.49" x2="110.22" y2= "97.49" />
  <line class="fil0 str0" x1="21.22" y1="76.27" x2="60.16" y2= "76.27" />
  <line class="fil0 str0" x1="21.22" y1="54.6" x2="60.16" y2= "54.6" />
  <polygon class="fil1" points="115.38,6.46 149.59,44.1 106.84,82.67 72.63,45.03 "/>
  <polygon class="fil1 str1" points="137.63,2.49 155.35,21.99 99.32,72.55 71.61,79.93 81.59,53.05 "/>
 </g>
</svg>
