<?xml version="1.0" encoding="UTF-8"?>
<!DOCTYPE svg PUBLIC "-//W3C//DTD SVG 1.1//EN" "http://www.w3.org/Graphics/SVG/1.1/DTD/svg11.dtd">
<!-- Creator: CorelDRAW 2017 -->
<svg xmlns="http://www.w3.org/2000/svg" xml:space="preserve" width="40.3195mm" height="36.8702mm" version="1.1" style="shape-rendering:geometricPrecision; text-rendering:geometricPrecision; image-rendering:optimizeQuality; fill-rule:evenodd; clip-rule:evenodd"
viewBox="0 0 282.81 258.62"
 xmlns:xlink="http://www.w3.org/1999/xlink">
 <defs>
  <style type="text/css">
   <![CDATA[
    .fil0 {fill:#D31F30}
   ]]>
  </style>
 </defs>
 <g id="Слой_x0020_1">
  <metadata id="CorelCorpID_0Corel-Layer"/>
  <path class="fil0" d="M153.53 149.78l0.05 78.85c6.83,3.77 61.13,29.79 64.32,29.99 1.33,0.08 63.29,-25.19 64.91,-30.83l-0 -78.53c-12.42,-3.39 -58.74,-31.06 -65.17,-31 -2.9,0.03 -59.25,27.99 -64.11,31.52zm60.87 52.41l-0.01 9.02 7.77 0 0 -10.52 -7.77 0 0.01 1.49zm-15.18 -66.24c3.81,3.56 11.69,6.56 16.88,9.07 6.06,2.93 12.39,5.98 18.33,8.83 11.97,5.76 18.87,12.6 35.31,-1.34 -3.18,-2.51 -46.86,-25.66 -51.93,-25.47 -4.24,0.16 -15.35,6.4 -18.59,8.91zm-32.76 16.56c8.23,4.68 46.98,26.21 55.89,22.89 4.32,-1.61 15.55,-7.25 17.99,-9.34 -6.26,-4.56 -27.62,-14.29 -36.95,-18.79 -6.84,-3.3 -11.76,-7.84 -18.58,-5.1 -2.79,1.12 -6.22,3.19 -9.13,4.58l-9.23 5.76zm-5.41 70.76l53.05 25.46 0.32 -26.95 7.73 0 0.02 27.07c16.43,-6.35 37.62,-19.13 53.02,-23.53l0.04 -65.6c-14.14,4.92 -30.25,14.23 -42.96,19.45 -9.28,3.81 -9.99,1.45 -10.12,10.97l-7.75 0c-0.17,-8.9 -4.97,-8.7 -24.39,-17.53 -9.49,-4.31 -19.4,-9.57 -28.6,-13.11l-0.37 63.77z"/>
  <path class="fil0" d="M165.15 93.43l9.89 13.68c0.7,0.64 1.24,1.43 1.66,2.3l0.67 0.92 1.53 5.98 1.56 4.72c0.5,1.12 1.05,2.64 1.57,4.19l-6.02 2.95 -0.2 -0.63c-0.49,-1.47 -1,-2.89 -1.42,-3.84l-0.23 -0.6 -1.56 -4.72 -0.13 -0.44 -1.24 -4.85 -0.46 -0.77c-0.04,-0.09 -0.1,-0.19 -0.18,-0.3 -0.03,-0.05 0.03,0 -0,-0.03l-0.52 -0.48 -6.28 -8.68 -0.55 0.43c-4.65,3.66 -9.36,7.36 -14.57,10.07l-10.06 6.95 -14.2 9.91 -11.96 6.84 -0.47 0.23 -6.12 2.9 -0.04 30.9 0.14 2.15c0.29,4.31 0.72,10.75 -1.56,13.77l-0.57 0.76 -11.81 8.54 -14.45 -39.5 -0.05 -0.1c-0.13,-0.37 -0.44,-1.46 -0.8,-2.7l-0.78 -2.67 -0.11 0.08 -13.88 8.54 -4.98 -2.6 -2.61 -3.59 0.83 -5.15 6.13 -5.77 0.44 -0.39 4.53 -3.56 -36.33 -30.21 8 -5.78 0.73 -0.47 6.11 -3.28 36.34 12.75 0 -0.01c0.72,0.25 1.79,0.71 2.99,1.22 0.97,0.42 1.91,0.92 2.63,1.29l2.74 -2.63 12.54 -11.03c3.31,-3.26 7.28,-5.95 11.17,-8.58 1.74,-1.18 3.46,-2.34 4.39,-3.01l23.89 -17.26 -5.43 -7.41 -0.89 -0.82c-0.56,-0.61 -1.15,-1.14 -1.76,-1.64l-27.31 -20.62 -28.77 -21.8 -20.87 -9.4 9.2 -6.72c5.98,-4.36 10.29,-3.64 14.89,-2.86 0.78,0.13 1.58,0.27 2.39,0.33 0.31,0.02 0.99,-0.06 1.68,-0.14 2.25,-0.26 4.54,-0.53 7.32,0.44l0.78 0.34 8.91 4.45 0 -0.01 55.97 27.14c1.32,-1.37 2.84,-2.66 4.43,-3.86 4.26,-3.2 9.38,-5.91 12.91,-7.25l3.28 -1.24 2.86 2.02c2,1.41 3.73,3.55 5.16,5.76 1.23,1.89 2.22,3.78 2.91,5.17l1.49 2.96c17.39,-12.69 36.08,-25.77 52.41,-31.33l0 0.02 0.86 -0.3 -0 -0.01c6.11,-2.14 21.19,-7.4 25.26,2.43 3.14,7.57 -7.07,19.24 -11.97,24.85l-0.86 0.99c-6.62,7.64 -16.32,14.72 -25.66,21.54l-0.2 0.14 0.01 0.01c-6.96,5.13 -13.74,10.05 -20.8,15.02 1.13,-0.14 2.23,-0.09 3.27,0.22l0.16 0.05c2.44,0.78 4.92,3.21 6.79,5.86 1.92,2.73 3.6,6.29 3.82,8.3l0.32 2.91 -1.96 2.2c-3.03,3.42 -6.41,6.2 -9.96,8.49 -1.94,1.25 -3.95,2.36 -6,3.36l1.55 11.16 -6.26 3.07 -2.53 -18.27c6.62,-2.64 13.09,-6.38 18.25,-12.2 -0.21,-1.87 -4.01,-7.94 -6.04,-8.59 -2.81,-0.83 -10.27,5.5 -13.36,7.85l-0.08 -0.11c-0.06,-2.09 -0.6,-12.97 0.28,-14.15l17.19 -12.09 11.45 -8.44c9.09,-6.63 18.56,-13.53 24.76,-20.68 3.48,-4.02 13.41,-14.89 11.72,-18.97 -1.82,-4.38 -14.32,0.39 -17.88,1.6 -18.89,6.43 -41.94,24.1 -61.84,38.61l-11.61 -3.58c4.51,-3.25 9.24,-6.28 11.51,-9.96 -1.26,-2.51 -3.54,-6.78 -5.97,-8.49 -5.44,2.05 -15.26,7.92 -17.66,13.25l-60.87 -29.52 -8.99 -4.49c-2.22,-0.77 -5.02,0.24 -7.34,0.05 -4.42,-0.35 -8.03,-2.27 -12.87,1.26l11.19 5.04 29.36 22.24 17.11 12.92 4.48 3.32 -0.03 0.03 2.22 1.67 0.02 -0.02c2.17,1.73 4.16,2.96 6.16,5.13l1.02 0.93 9.04 12.33 0.68 0.9 -29.32 21.18c-4.97,3.59 -10.98,7.1 -15.04,11.2l-12.54 11.03 -4.95 4.73c-2.13,0.33 -7.67,-2.53 -9.94,-3.32l-33.63 -11.8 -3.54 1.9 -1.08 0.78 34.94 29.06c-1.04,1.11 -1.48,2.49 -2.08,3.47l-7.74 6.09 -4.49 4.23 -0.03 0.19 0.08 0.11 0.26 0.14 10.68 -6.57 2.59 -1.87c1.21,-0.35 2.72,-0.2 4.25,-0.93 2.11,1.84 3.71,8.99 4.61,11.6l11.44 31.27 3.88 -2.8c1.06,-1.4 0.12,-9.73 0.1,-11.89l0.04 -35.14 9.9 -4.69 11.96 -6.84 13.74 -9.6 10.5 -7.26c6.91,-3.53 13.34,-9.44 19.8,-14.15z"/>
  <path class="fil0" d="M-0 72.92l10.62 -8.6 4.8 5.93 -10.62 8.6 -4.8 -5.93zm26.31 -21.3l34.7 -28.1 4.8 5.93 -34.7 28.1 -4.8 -5.93z"/>
  <polygon class="fil0" points="22.48,78.53 57.18,50.43 61.98,56.36 27.28,84.46 "/>
 </g>
</svg>
