<svg width="83" height="91" viewBox="0 0 83 91" fill="none" xmlns="http://www.w3.org/2000/svg">
<path d="M81.32 18.38C79.97 16.77 77.95 15.96 75.3 15.96H47.04C44 15.96 41.33 17.4 39.52 20.02C37.35 23.16 36.86 27.47 38.21 31.36L33.85 52.41H20.07C19.29 52.41 18.65 53.04 18.65 53.83C18.65 54.62 19.28 55.25 20.07 55.25H33.27L32.37 59.57C32.24 60.18 31.7 60.62 31.08 60.62H19.3C15.92 60.62 13.17 63.37 13.17 66.75C13.17 70.13 15.92 72.88 19.3 72.88H26.95L23.88 87.7H17.32C16.54 87.7 15.9 88.33 15.9 89.12C15.9 89.91 16.53 90.54 17.32 90.54H25.03H25.04C25.04 90.54 25.04 90.54 25.05 90.54H55.73C59.5 90.54 62.79 87.86 63.55 84.17L65.92 72.73C70.07 72 73.51 68.8 74.41 64.58L82.89 25.09C82.9 24.9 83.56 21.06 81.32 18.38ZM16.01 66.74C16.01 64.92 17.49 63.45 19.3 63.45H31.07C33.03 63.45 34.74 62.06 35.13 60.14L36.31 54.44C36.4 54.25 36.46 54.04 36.46 53.82C36.46 53.8 36.45 53.78 36.45 53.76L41.06 31.54C41.12 31.28 41.09 31 41 30.75C39.81 27.62 40.14 24.12 41.86 21.63C43.12 19.8 44.96 18.8 47.04 18.8H68.74C68.39 19.17 68.05 19.56 67.75 20C65.59 23.13 65.11 27.45 66.47 31.36L62.11 52.41H48.28C47.5 52.41 46.86 53.04 46.86 53.83C46.86 54.62 47.49 55.25 48.28 55.25H61.52L60.62 59.57C60.49 60.18 59.95 60.62 59.33 60.62H43.58C40.2 60.62 37.45 63.37 37.45 66.75C37.45 67.96 37.81 69.09 38.42 70.04H28.7C28.69 70.04 28.67 70.04 28.66 70.04H19.29C17.48 70.03 16.01 68.56 16.01 66.74ZM60.76 83.57C60.27 85.95 58.14 87.68 55.71 87.68H26.77L29.84 72.86H43.16C43.21 72.86 43.25 72.85 43.3 72.85C43.39 72.85 43.48 72.86 43.58 72.86H62.98L60.76 83.57ZM80.09 24.52L71.62 63.96C70.86 67.48 67.7 70.03 64.11 70.03H43.58C41.76 70.03 40.29 68.55 40.29 66.74C40.29 64.93 41.77 63.45 43.58 63.45H59.33C61.29 63.45 62.99 62.06 63.39 60.14L64.64 54.12C64.64 54.11 64.64 54.11 64.64 54.1L69.32 31.54C69.38 31.27 69.35 31 69.26 30.75C68.06 27.59 68.37 24.09 70.08 21.61C71.33 19.8 73.18 18.8 75.29 18.8C77.05 18.8 78.35 19.27 79.13 20.2C80.52 21.84 80.09 24.52 80.09 24.52Z" fill="#D0112B"/>
<path d="M16.65 42.71C19.92 42.71 22.91 41.54 25.25 39.6C25.35 39.53 25.43 39.45 25.51 39.36C28.32 36.89 30.11 33.28 30.11 29.25V14.19C30.11 13.37 30.02 12.57 29.88 11.79C29.91 11.53 29.87 11.25 29.74 10.99C29.73 10.96 29.71 10.94 29.69 10.92C28.23 5.06998 22.94 0.72998 16.65 0.72998H14.1C7.69998 0.72998 2.33998 5.21998 0.97998 11.22C0.96998 11.25 0.960012 11.29 0.950012 11.32C0.750012 12.24 0.640015 13.2 0.640015 14.18V29.24C0.640015 36.66 6.67998 42.7 14.1 42.7H16.65V42.71ZM27.27 29.25C27.27 31.93 26.27 34.37 24.63 36.24C22.82 34.39 20.02 34.08 18.38 34.08C18.37 34.08 18.36 34.08 18.35 34.08C17.85 32.72 16.75 31.14 14.71 30.5C14.64 27.4 12.8 25.88 11.62 25.22C10.01 24.33 7.89 24.1 6.37 24.55C5.39 23.76 4.36998 23.46 3.47998 23.41V14.19C3.47998 14.05 3.5 13.91 3.5 13.77C7.28 15.44 11.34 16.27 15.41 16.27C19.45 16.27 23.49 15.44 27.26 13.79C27.26 13.92 27.28 14.05 27.28 14.18V29.25H27.27ZM14.09 3.56998H16.64C21.35 3.56998 25.35 6.64998 26.74 10.91C19.56 14.29 11.18 14.28 4 10.89C5.4 6.63998 9.39003 3.56998 14.09 3.56998ZM3.46997 29.25V26.25C3.89997 26.31 4.45001 26.53 5.01001 27.18C5.51001 27.75 6.37002 27.83 6.96002 27.36C7.29002 27.13 8.95998 26.93 10.35 27.77C11.54 28.49 12.03 29.73 11.82 31.47C11.77 31.85 11.88 32.23 12.12 32.53C12.36 32.83 12.71 33.02 13.09 33.05C15.46 33.27 15.81 35.47 15.84 35.71C15.88 36.09 16.07 36.43 16.37 36.67C16.67 36.9 17.05 37.01 17.42 36.96C17.46 36.95 20.79 36.57 22.46 38.12C20.78 39.23 18.78 39.88 16.63 39.88H14.08C8.24002 39.88 3.46997 35.11 3.46997 29.25Z" fill="#D0112B"/>
</svg>
