<?xml version="1.0" encoding="UTF-8"?>
<!DOCTYPE svg PUBLIC "-//W3C//DTD SVG 1.1//EN" "http://www.w3.org/Graphics/SVG/1.1/DTD/svg11.dtd">
<!-- Creator: CorelDRAW 2017 -->
<svg xmlns="http://www.w3.org/2000/svg" xml:space="preserve" width="37.0685mm" height="34.0916mm" version="1.1" style="shape-rendering:geometricPrecision; text-rendering:geometricPrecision; image-rendering:optimizeQuality; fill-rule:evenodd; clip-rule:evenodd"
viewBox="0 0 244.52 224.88"
 xmlns:xlink="http://www.w3.org/1999/xlink">
 <defs>
  <style type="text/css">
   <![CDATA[
    .fil0 {fill:#D31F30}
   ]]>
  </style>
 </defs>
 <g id="Слой_x0020_1">
  <metadata id="CorelCorpID_0Corel-Layer"/>
  <g>
   <path class="fil0" d="M155.31 100.54c-2.29,-3.04 -4.59,-6.09 -6.88,-9.13 5.22,0.01 10.5,0.3 14.26,-1.25 0.42,-2.6 1.03,-7.12 0.12,-9.75 -5.27,-1.43 -16,-2.37 -20.76,0.38 -10.04,-18.67 -20.09,-37.35 -30.14,-56.03 -1.46,-2.79 -2.92,-5.59 -4.38,-8.38 -1.26,-1.81 -3.96,-2.58 -5.63,-4 -3.18,-2.7 -4.88,-6.15 -10.5,-6.13 1.92,3.33 3.84,6.67 5.75,10 3.37,11.04 6.75,22.08 10.12,33.13l0 0 5.93 19.27c0.53,1.67 1.05,3.33 1.58,5 -0.01,0 -0.03,0 -0.04,0.01l0.77 2.49c0.01,0 0.02,0 0.03,0 0.7,2.51 1.54,4.55 1.87,7.3l0.26 1.27 0.1 14.38c0.01,0.35 0.02,0.71 0.02,1.06 -11.34,0 -22.68,0 -34.02,0 -5.76,0 -12.28,-0.64 -17.63,0.25 -5.21,0.5 -10.42,1 -15.63,1.5 -2.13,0.29 -4.25,0.58 -6.38,0.88 -1.8,-0.92 -4.45,-6.16 -5.75,-8 -6.38,-9.17 -12.76,-18.34 -19.13,-27.51 -1.25,-0.17 -2.5,-0.33 -3.75,-0.5 -0.42,0 -0.83,0 -1.25,0 3.54,13.8 7.09,27.6 10.63,41.39 -1.4,0.28 -2.5,1.09 -3.5,1.5 -3.09,0.13 -6.17,0.25 -9.25,0.38 -1.92,0.25 -3.84,0.5 -5.75,0.75 -0.04,0.04 -0.08,0.08 -0.12,0.13 0,0.04 0,0.08 0,0.12 0.04,0.08 0.08,0.17 0.12,0.25 3.92,0.29 7.84,0.58 11.76,0.87 1,0 2,0 3,0 1.12,0.41 2.18,1.35 3.75,1.63 0.6,2.56 -2.12,8.9 -2.88,11.38 -2.83,10.05 -5.67,20.09 -8.5,30.14 1.5,0 3,0 4.5,0 1.58,-0.49 5.45,-7.35 6.63,-9 6.46,-8.92 12.92,-17.84 19.38,-26.76 3.38,0.63 6.75,1.25 10.13,1.88 4.29,0.46 8.59,0.92 12.88,1.37 5.25,0.08 10.5,0.17 15.76,0.25 4,0.08 8,0.17 12,0.25 7.21,1.12 15.37,0.15 22.89,0.13 0,1.04 0,2.08 0,3.12 0,3 0,6.01 0,9.01l0 3.75c0.18,0.88 0.16,1.78 0,2.67l0 1.07 -2.13 5.39 -1.41 4.45c-0.55,2.59 -2,6.92 -2.86,9.01l-2.02 6.84c-0.89,3.63 -3.07,9.3 -3.59,10.96 -3.04,10.09 -6.09,20.18 -9.13,30.26 -1.92,2.75 -3.84,5.5 -5.75,8.25 1.28,0.98 4.09,0.03 5,-0.63 2,-1.67 4,-3.33 6,-5 3.24,-1.9 4.25,-1.9 6.25,-5.13 11.05,-20.8 22.09,-41.6 33.14,-62.4 6.5,1.63 13.49,2.34 20.63,0.75 0.87,-1.54 1.32,-8.26 0.13,-9.88 -1.69,-2.18 -10.86,-1.46 -14.51,-1.38 0,-0.04 0,-0.08 0,-0.13 1.11,-1.63 6.69,-10.22 8,-10.63 6.58,0.08 13.17,0.17 19.76,0.25 4.46,-0.04 8.92,-0.08 13.38,-0.13 10.58,-0.05 21.6,-0.09 30.26,-2.13 4.87,-1.15 18.43,-3.96 19.38,-8 1.03,-4.34 -11.13,-7.59 -14.51,-8.63 -17.94,-5.5 -45.24,-4.73 -68.41,-4.63zm13.03 -6.3c20.23,-0.1 41.66,0.23 57.16,4.96l0 -0.01 0.88 0.26c5.85,1.74 20.23,6.03 17.92,15.78l-0.01 -0c-1.81,7.51 -16.03,10.79 -22.84,12.36l-1.19 0.28 0 0.01c-9.2,2.16 -20.51,2.22 -31.4,2.27l-0.23 0 -13.38 0.13 -0.12 0 -10.66 -0.14c0.95,0.52 1.77,1.17 2.4,1.99l0.1 0.12c1.41,1.92 1.96,5.14 1.92,8.2 -0.04,3.14 -0.72,6.79 -1.66,8.44l-1.36 2.39 -2.72 0.61c-4.17,0.93 -8.26,1.19 -12.22,0.98 -2.2,-0.12 -4.35,-0.37 -6.45,-0.73l-30.94 58.26 -0.22 0.37c-2.45,3.95 -3.9,4.74 -6.85,6.34l-0.02 0.02c-0.39,0.21 -0.81,0.44 -1.13,0.62l-5.57 4.64 -0.37 0.29c-1.16,0.83 -3.55,1.86 -5.7,2.13l-0 -0.02c-2.27,0.28 -4.68,-0.06 -6.69,-1.6l-4.75 -3.63 3.4 -4.89 5.19 -7.45 8.83 -29.28 0.02 -0.07c0.19,-0.6 0.5,-1.48 0.89,-2.57 0.85,-2.39 2.08,-5.85 2.61,-8l0.07 -0.29 2.02 -6.84 0.22 -0.61c0.36,-0.87 0.92,-2.46 1.48,-4.23 0.45,-1.42 0.84,-2.78 1.04,-3.71l0.15 -0.59 1.41 -4.45 0.15 -0.39 1.7 -4.31 0.09 -0.94 0.05 -0.32 -0 -0.04 -0.15 -0.71 0 -0.56 0 -3.75 0 -5.73 -0.64 0.03c-5.49,0.22 -11.06,0.45 -16.51,-0.34l-11.61 -0.24 0 -0 -15.73 -0.25 -0.56 -0.02 -12.88 -1.37 -0.46 -0.07 -6.26 -1.16 -17.08 23.58 -0.01 -0c-0.15,0.22 -0.56,0.88 -1.05,1.66 -2.15,3.44 -5.37,8.6 -8.79,9.64l-0.95 0.29 -0.88 0 -4.5 0 -8.24 0 2.24 -7.93 8.5 -30.14 0.05 -0.12c0.35,-1.16 0.58,-1.79 0.83,-2.5 0.27,-0.77 0.59,-1.64 0.88,-2.47l-0.08 -0 -11.76 -0.87 -3.57 -0.27 -1.58 -3.17 -0.12 -0.25 -0.66 -1.33 0 -1.46 0 -0.12 0 -2.55 1.83 -1.84 0.12 -0.13 1.5 -1.51 2.11 -0.28 5.75 -0.75 0.56 -0.05 5.41 -0.22 -9.06 -35.29 -2 -7.78 8.02 0 1.25 0 0.8 0.07 3.75 0.5 2.76 0.37 1.56 2.24 19.13 27.51 -0 0c0.43,0.61 0.98,1.53 1.6,2.56 0.51,0.85 0.93,1.75 1.25,2.41l3.34 -0.46 0.24 -0.02 15.35 -1.47c4.3,-0.7 8.94,-0.55 13.47,-0.41 1.37,0.04 2.72,0.09 5.02,0.09l27.74 0 -0.06 -8.52 -0.15 -0.7 -0.1 -0.51c-0.12,-1.03 -0.37,-2.01 -0.66,-2.99l-0.99 -3.21 -0.77 -2.49 -0.99 -3.22 -0.55 -1.74 0 -0.05 -5.93 -19.27 0 -0.02 -9.92 -32.45 -5.4 -9.39 -5.33 -9.27 10.7 -0.05c6.95,-0.03 9.85,2.91 12.94,6.04 0.6,0.61 1.22,1.24 1.62,1.58 0.16,0.14 0.75,0.46 1.34,0.79 1.88,1.05 3.78,2.11 5.36,4.38l0.41 0.68 4.34 8.31 0.01 -0.01 27.71 51.51c1.76,-0.31 3.63,-0.47 5.52,-0.5 5.02,-0.09 10.4,0.65 13.8,1.57l3.22 0.87 1.08 3.13c0.74,2.16 0.88,4.75 0.75,7.23 -0.11,2.05 -0.4,4.06 -0.63,5.52l-0.5 3.1z"/>
  </g>
 </g>
</svg>
