<?xml version="1.0" encoding="UTF-8"?>
<!DOCTYPE svg PUBLIC "-//W3C//DTD SVG 1.1//EN" "http://www.w3.org/Graphics/SVG/1.1/DTD/svg11.dtd">
<!-- Creator: CorelDRAW 2021.5 -->
<svg xmlns="http://www.w3.org/2000/svg" xml:space="preserve" width="12.8517mm" height="12.1477mm" version="1.1" style="shape-rendering:geometricPrecision; text-rendering:geometricPrecision; image-rendering:optimizeQuality; fill-rule:evenodd; clip-rule:evenodd"
viewBox="0 0 19.26 18.2"
 xmlns:xlink="http://www.w3.org/1999/xlink"
 xmlns:xodm="http://www.corel.com/coreldraw/odm/2003">
 <defs>
  <style type="text/css">
   <![CDATA[
    .fil2 {fill:#FEFEFE}
    .fil0 {fill:#D31F30}
    .fil1 {fill:#D31F30;fill-rule:nonzero}
   ]]>
  </style>
 </defs>
 <g id="Слой_x0020_1">
  <metadata id="CorelCorpID_0Corel-Layer"/>
  <g id="_2057335365408">
   <polygon class="fil0" points="6.54,16.51 6.54,16.51 "/>
   <path class="fil0" d="M11.95 8.93c1.44,-0.01 2.96,0.02 4.06,0.35l0 -0 0.06 0.02c0.42,0.12 1.44,0.43 1.27,1.12 -0.13,0.53 -1.14,0.77 -1.62,0.88l-0.08 0.02c-0.65,0.15 -1.46,0.16 -2.23,0.16 -0.58,0 -1.15,0.01 -1.73,-0 0.07,0.04 0.13,0.08 0.17,0.14l0.01 0.01c0.1,0.14 0.14,0.36 0.14,0.58 -0,0.22 -0.05,0.48 -0.12,0.6l-0.1 0.17 -0.19 0.04c-0.3,0.07 -0.59,0.08 -0.87,0.07 -0.16,-0.01 -0.31,-0.03 -0.46,-0.05l-2.2 4.14 -0.02 0.03c-0.17,0.28 -0.28,0.34 -0.49,0.45l-0 0 -0.08 0.04 -0.4 0.33 -0.03 0.02c-0.08,0.06 -0.25,0.13 -0.4,0.15 -0.16,0.02 -0.33,-0 -0.48,-0.12l-0.34 -0.26 0.61 -0.88 0.63 -2.08c0.01,-0.04 0.04,-0.11 0.06,-0.18 0.06,-0.17 0.15,-0.42 0.19,-0.57l0.01 -0.02 0.14 -0.49 0.02 -0.04c0.03,-0.06 0.07,-0.17 0.11,-0.3 0.03,-0.1 0.06,-0.2 0.07,-0.26l0.01 -0.04 0.1 -0.32 0.13 -0.33 0.01 -0.07 0 -0.02 -0.01 -0.05 0 -0.71 -0.05 0c-0.39,0.02 -0.78,0.03 -1.17,-0.02l-0.82 -0.02 -1.12 -0.02 -0.04 -0 -0.91 -0.1 -0.03 -0.01 -0.44 -0.08 -1.21 1.67 -0 -0c-0.01,0.02 -0.04,0.06 -0.07,0.12 -0.15,0.24 -0.38,0.61 -0.62,0.68l-0.07 0.02 -0.97 0 0.76 -2.7 0 -0.01c0.03,-0.08 0.04,-0.13 0.06,-0.18l0.06 -0.18c-0.36,-0.02 -0.73,-0.05 -1.09,-0.08l-0.17 -0.34 0 -0.29 0.25 -0.25 0.56 -0.07 0.04 -0 0.38 -0.02 -0.79 -3.06 0.66 0 0.06 0.01 0.46 0.06 1.47 2.11c0.03,0.04 0.07,0.11 0.11,0.18 0.04,0.06 0.07,0.12 0.09,0.17l0.24 -0.03 1.11 -0.11c0.31,-0.05 0.63,-0.04 0.96,-0.03 0.1,0 0.19,0.01 0.36,0.01l1.97 0 -0 -0.6 -0.02 -0.09c-0.01,-0.07 -0.03,-0.14 -0.05,-0.21l-0.19 -0.63 -0.04 -0.12 0 -0 -0.42 -1.37 0 -0 -0.7 -2.3 -0.76 -1.32 0.76 -0c0.49,-0 0.7,0.21 0.92,0.43 0.04,0.04 0.09,0.09 0.11,0.11 0.01,0.01 0.05,0.03 0.09,0.06 0.13,0.07 0.27,0.15 0.38,0.31l0.03 0.05 0.31 0.59 0 -0 1.97 3.66c0.13,-0.02 0.26,-0.03 0.39,-0.04 0.36,-0.01 0.74,0.05 0.98,0.11l0.23 0.06 0.08 0.22c0.05,0.15 0.06,0.34 0.05,0.51 -0.01,0.15 -0.03,0.29 -0.04,0.39l-0.04 0.22z"/>
   <g>
    <path class="fil1" d="M14.14 -0c1.41,0 2.69,0.57 3.62,1.5 0.93,0.93 1.5,2.21 1.5,3.62 0,1.41 -0.57,2.69 -1.5,3.62 -0.93,0.93 -2.21,1.5 -3.62,1.5 -1.41,0 -2.69,-0.57 -3.62,-1.5 -0.93,-0.93 -1.5,-2.21 -1.5,-3.62 0,-1.41 0.57,-2.69 1.5,-3.62 0.93,-0.93 2.21,-1.5 3.62,-1.5zm3.29 1.83c-0.84,-0.84 -2.01,-1.36 -3.29,-1.36 -1.28,0 -2.45,0.52 -3.29,1.36 -0.84,0.84 -1.36,2.01 -1.36,3.29 0,1.28 0.52,2.45 1.36,3.29 0.84,0.84 2.01,1.36 3.29,1.36 1.28,0 2.45,-0.52 3.29,-1.36 0.84,-0.84 1.36,-2.01 1.36,-3.29 0,-1.28 -0.52,-2.45 -1.36,-3.29z"/>
    <path class="fil1" d="M14.14 -0c0.85,0 1.62,0.59 2.16,1.55 0.52,0.92 0.84,2.18 0.84,3.57 0,1.39 -0.32,2.65 -0.84,3.57 -0.54,0.96 -1.3,1.55 -2.16,1.55 -0.85,0 -1.62,-0.59 -2.16,-1.55 -0.52,-0.92 -0.84,-2.18 -0.84,-3.57 0,-1.39 0.32,-2.65 0.84,-3.57 0.54,-0.96 1.3,-1.55 2.16,-1.55zm1.75 1.78c-0.46,-0.81 -1.08,-1.31 -1.75,-1.31 -0.67,0 -1.29,0.5 -1.75,1.31 -0.48,0.85 -0.78,2.03 -0.78,3.34 0,1.31 0.3,2.49 0.78,3.34 0.46,0.81 1.08,1.31 1.75,1.31 0.67,0 1.29,-0.5 1.75,-1.31 0.48,-0.85 0.78,-2.03 0.78,-3.34 0,-1.31 -0.3,-2.49 -0.78,-3.34z"/>
    <path class="fil1" d="M13.9 1.64l0 -1.41 0.47 0 0 3.85 0 0 0 2.07 -0 0 -0 3.85 -0.47 0c-0,-2.79 -0,-5.58 -0,-8.36z"/>
    <polygon class="fil1" points="17.59,4.89 19.01,4.89 19.01,5.35 9.15,5.35 9.15,4.89 "/>
    <polygon class="fil1" points="17.03,2.23 18.23,2.23 18.23,2.7 9.93,2.7 9.93,2.23 "/>
    <polygon class="fil1" points="17.16,7.41 18.41,7.41 18.41,7.88 9.75,7.88 9.75,7.41 "/>
   </g>
   <path class="fil2" d="M11.03 9.38l-0.49 -0.65c0.37,0 0.75,0.02 1.01,-0.09 0.03,-0.18 0.07,-0.51 0.01,-0.69 -0.37,-0.1 -1.14,-0.17 -1.47,0.03l-2.14 -3.98 -0.31 -0.59c-0.09,-0.13 -0.28,-0.18 -0.4,-0.28 -0.23,-0.19 -0.35,-0.44 -0.75,-0.44l0.41 0.71 0.72 2.35 0.42 1.37 0.11 0.36 -0 0 0.05 0.18 0 0c0.05,0.18 0.11,0.32 0.13,0.52l0.02 0.09 0.01 1.02 0 0.08 -2.41 0c-0.41,0 -0.87,-0.05 -1.25,0.02l-1.11 0.11 -0.45 0.06c-0.13,-0.07 -0.32,-0.44 -0.41,-0.57l-1.36 -1.95 -0.27 -0.04 -0.09 0 0.75 2.94c-0.1,0.02 -0.18,0.08 -0.25,0.11l-0.66 0.03 -0.41 0.05 -0.01 0.01 0 0.01 0.01 0.02 0.83 0.06 0.21 0c0.08,0.03 0.15,0.1 0.27,0.12 0.04,0.18 -0.15,0.63 -0.2,0.81l-0.6 2.14 0.32 0c0.11,-0.03 0.39,-0.52 0.47,-0.64l1.38 -1.9 0.72 0.13 0.91 0.1 1.12 0.02 0.85 0.02c0.51,0.08 1.09,0.01 1.62,0.01l0 1.13c0.01,0.06 0.01,0.13 0,0.19l0 0.08 -0.15 0.38 -0.1 0.32c-0.04,0.18 -0.14,0.49 -0.2,0.64l-0.14 0.49c-0.06,0.26 -0.22,0.66 -0.25,0.78l-0.65 2.15 -0.41 0.59c0.09,0.07 0.29,0 0.36,-0.04l0.43 -0.36c0.23,-0.13 0.3,-0.14 0.44,-0.36l2.35 -4.43c0.46,0.12 0.96,0.17 1.46,0.05 0.06,-0.11 0.09,-0.59 0.01,-0.7 -0.12,-0.15 -0.77,-0.1 -1.03,-0.1l0 -0.01c0.08,-0.12 0.47,-0.73 0.57,-0.75l1.4 0.02 0.95 -0.01c0.75,-0 1.53,-0.01 2.15,-0.15 0.35,-0.08 1.31,-0.28 1.38,-0.57 0.07,-0.31 -0.79,-0.54 -1.03,-0.61 -1.27,-0.39 -3.21,-0.34 -4.86,-0.33z"/>
  </g>
 </g>
</svg>
