<svg width="96" height="91" viewBox="0 0 96 91" fill="none" xmlns="http://www.w3.org/2000/svg">
<path d="M83.02 27.99C82.64 27.99 82.28 28.14 82.02 28.41L76.28 34.15L70.54 28.41C70.27 28.14 69.91 27.99 69.53 27.99C62.73 27.99 57.2 33.52 57.2 40.31V59.92H56.52V55.28C56.52 54.5 55.89 53.86 55.1 53.86H47.65C46.87 53.86 46.23 54.49 46.23 55.28V59.92H37.05C36.27 59.92 35.63 60.55 35.63 61.34V81.15C35.63 81.93 36.26 82.57 37.05 82.57H64.29V83.67C64.29 87.37 67.3 90.37 70.99 90.37C73.14 90.37 75.05 89.35 76.28 87.77C77.51 89.35 79.42 90.37 81.57 90.37C85.27 90.37 88.27 87.36 88.27 83.67V66.97C92.23 66.63 95.35 63.3 95.35 59.25V40.31C95.36 33.52 89.83 27.99 83.02 27.99ZM49.08 56.7H53.7V59.92H49.08V56.7ZM38.48 79.73V62.75H47.66H55.11H64.29V79.73H38.48ZM85.44 83.66C85.44 85.79 83.7 87.53 81.57 87.53C79.44 87.53 77.7 85.79 77.7 83.66V66.96C77.7 66.18 77.07 65.54 76.28 65.54C75.49 65.54 74.86 66.17 74.86 66.96V83.66C74.86 85.79 73.12 87.53 70.99 87.53C68.86 87.53 67.12 85.79 67.12 83.66V81.18C67.12 81.17 67.12 81.15 67.12 81.14V61.34C67.12 61.33 67.12 61.31 67.12 61.3V59.67C70.11 60.5 73.19 60.93 76.28 60.93C79.37 60.93 82.45 60.49 85.44 59.67V83.66ZM92.52 59.26C92.52 61.74 90.67 63.78 88.28 64.11V44.98C88.28 44.2 87.65 43.56 86.86 43.56C86.07 43.56 85.44 44.19 85.44 44.98V56.71C79.49 58.52 73.07 58.52 67.13 56.71V44.98C67.13 44.2 66.5 43.56 65.71 43.56C64.92 43.56 64.29 44.19 64.29 44.98V59.92H60.05V40.31C60.05 35.27 64 31.13 68.98 30.84L75.29 37.14C75.41 37.26 75.56 37.35 75.71 37.42C75.9 37.51 76.09 37.56 76.3 37.56C76.5 37.56 76.7 37.51 76.89 37.42C77.04 37.35 77.18 37.27 77.31 37.14L83.62 30.84C88.59 31.13 92.55 35.27 92.55 40.31V59.26H92.52Z" fill="#D0112B"/>
<path d="M46.33 87.53H8.27005L3.85001 49.34H51.4001C52.1801 49.34 52.82 48.71 52.82 47.92C52.82 47.13 52.1901 46.5 51.4001 46.5H45.44V40.3C45.44 36.7 43.8801 33.46 41.4001 31.21C42.5901 30.02 44.0801 28.13 44.0201 26.23C43.9901 25.45 43.7 24.33 42.42 23.45C40.4 22.05 40.54 16.93 40.75 15.25C40.77 15.11 40.76 14.98 40.74 14.86C40.74 14.7 40.76 14.55 40.76 14.4C40.76 6.46 34.3 0 26.36 0C23.22 0 20.32 1.02 17.95 2.73C17.82 2.8 17.7001 2.9 17.5901 3C14.1701 5.64 11.9601 9.76 11.9601 14.39C11.9601 14.54 11.98 14.69 11.98 14.84C11.96 14.97 11.95 15.1 11.97 15.24C12.18 16.92 12.33 22.04 10.3 23.44C9.03002 24.32 8.73004 25.44 8.70004 26.22C8.64004 28.12 10.13 30.01 11.32 31.2C8.85004 33.46 7.28006 36.69 7.28006 40.29V46.49H2.24002C1.84002 46.49 1.45002 46.66 1.18002 46.96C0.910022 47.26 0.780047 47.66 0.830047 48.07L5.58005 89.09C5.66005 89.8 6.27002 90.34 6.99002 90.34H46.32C47.1 90.34 47.74 89.71 47.74 88.92C47.74 88.13 47.11 87.53 46.33 87.53ZM37.79 12.73C35.78 11.21 33.24 11.21 30.62 11.23C28.75 11.24 26.62 11.25 24.29 10.77C22.37 10.37 21.05 9.58 20.35 8.41C19.57 7.1 19.71 5.58 19.85 4.85C21.7 3.58 23.94 2.84 26.35 2.84C32.17 2.83 36.98 7.14 37.79 12.73ZM17.07 7.55C17.21 8.29 17.47 9.07 17.91 9.83C19.03 11.73 20.98 12.98 23.73 13.55C26.35 14.09 28.63 14.08 30.64 14.07C34.58 14.04 36.32 14.17 37.6 17.08C36.39 22.17 31.82 25.97 26.36 25.97C19.98 25.97 14.8 20.78 14.8 14.41C14.8 11.83 15.65 9.47 17.07 7.55ZM11.54 26.33C11.54 26.23 11.55 26.04 11.92 25.79C13.12 24.96 13.85 23.66 14.3 22.23C16.87 26.18 21.31 28.8 26.37 28.8C31.42 28.8 35.86 26.18 38.43 22.24C38.88 23.66 39.61 24.97 40.81 25.79C41.18 26.04 41.18 26.23 41.19 26.33C41.22 27.17 40.11 28.54 39.07 29.53C37.3 28.55 35.27 27.99 33.11 27.99C32.73 27.99 32.37 28.14 32.11 28.41L26.37 34.15L20.63 28.41C20.36 28.14 20 27.99 19.62 27.99C17.46 27.99 15.43 28.55 13.67 29.53C12.62 28.54 11.51 27.17 11.54 26.33ZM10.13 40.31C10.13 35.27 14.08 31.13 19.06 30.84L25.37 37.14C25.49 37.26 25.64 37.35 25.79 37.42C25.98 37.51 26.17 37.56 26.38 37.56C26.58 37.56 26.78 37.51 26.97 37.42C27.12 37.35 27.26 37.27 27.39 37.14L33.69 30.84C38.66 31.13 42.62 35.27 42.62 40.31V46.51H10.1501V40.31H10.13Z" fill="#D0112B"/>
<path d="M21.23 37.25H14.27C13.49 37.25 12.85 37.88 12.85 38.67C12.85 39.46 13.48 40.09 14.27 40.09H21.23C22.01 40.09 22.65 39.46 22.65 38.67C22.65 37.88 22.01 37.25 21.23 37.25Z" fill="#D0112B"/>
<path d="M61.92 15.99C61.94 16.09 61.9901 16.17 62.0301 16.26C62.9501 23.32 68.99 28.79 76.29 28.79C84.23 28.79 90.69 22.33 90.69 14.39C90.69 13.78 90.64 13.17 90.56 12.58C90.56 12.57 90.56 12.57 90.56 12.56C90.56 12.44 90.53 12.32 90.5 12.21C89.44 5.31 83.48 0 76.29 0C74.31 0 72.42 0.4 70.7 1.13C70.66 1.15 70.6201 1.16 70.5901 1.18C65.4801 3.39 61.89 8.48 61.89 14.4C61.89 14.73 61.92 15.04 61.94 15.36C61.88 15.56 61.87 15.78 61.92 15.99ZM76.29 25.96C70.71 25.96 66.05 21.99 64.96 16.73C67.34 16 72.1401 14.01 74.2801 9.59C76.9701 11.9 81.21 13.92 87.83 14.02C87.83 14.15 87.85 14.27 87.85 14.4C87.85 20.77 82.66 25.96 76.29 25.96ZM87.38 11.18C80.64 10.98 76.92 8.61 74.9 6.34C74.82 6.22 74.73 6.11 74.62 6.01C73.79 5 73.28 4.04 72.98 3.32C74.03 3.01 75.1301 2.83 76.2801 2.83C81.5401 2.83 85.98 6.36 87.38 11.18ZM70.42 4.45C70.77 5.25 71.32 6.27 72.13 7.33C70.93 11.09 67.04 13 64.75 13.81C64.95 9.82 67.18 6.37 70.42 4.45Z" fill="#D0112B"/>
<path d="M25.01 57.3099C25.01 55.3099 23.38 53.6799 21.38 53.6799H11.39C10.61 53.6799 9.96997 54.3099 9.96997 55.0999C9.96997 55.8899 10.6 56.5199 11.39 56.5199H21.38C21.82 56.5199 22.18 56.8799 22.18 57.3199C22.18 57.7599 21.82 58.1199 21.38 58.1199H16.5C15.93 58.1199 15.41 58.4599 15.19 58.9999C14.97 59.5299 15.09 60.1399 15.5 60.5399L21.85 66.8899C22.13 67.1699 22.49 67.3099 22.85 67.3099C23.21 67.3099 23.58 67.1699 23.85 66.8899C24.4 66.3399 24.4 65.4399 23.85 64.8899L19.92 60.9599H21.37C23.38 60.9399 25.01 59.3099 25.01 57.3099Z" fill="#D0112B"/>
</svg>
