<svg width="92" height="94" viewBox="0 0 92 94" fill="none" xmlns="http://www.w3.org/2000/svg">
<path d="M85.94 17.3401H75.88C75.1 17.3401 74.46 17.9701 74.46 18.7601C74.46 19.5501 75.09 20.1801 75.88 20.1801H85.94C86.33 20.1801 86.7 20.2601 87.05 20.3901L52.11 53.3301L17.17 20.3901C17.52 20.2601 17.89 20.1801 18.28 20.1801H31.64C32.42 20.1801 33.06 19.5501 33.06 18.7601C33.06 17.9701 32.43 17.3401 31.64 17.3401H18.28C14.97 17.3401 12.28 20.0301 12.28 23.3401V28.5501C12.28 29.3301 12.91 29.9701 13.7 29.9701C14.49 29.9701 15.12 29.3401 15.12 28.5501V23.3401C15.12 23.0401 15.18 22.7501 15.26 22.4701L51.15 56.3001C51.42 56.5601 51.77 56.6901 52.12 56.6901C52.47 56.6901 52.82 56.5601 53.09 56.3001L88.98 22.4701C89.06 22.7501 89.12 23.0301 89.12 23.3401V72.3201C89.12 72.8201 88.99 73.2901 88.78 73.7101L63.64 53.8801C63.02 53.3901 62.13 53.5001 61.65 54.1101C61.17 54.7201 61.27 55.6201 61.88 56.1001L86.39 75.4401C86.24 75.4601 86.1 75.4801 85.95 75.4801H66.83C66.05 75.4801 65.41 76.1101 65.41 76.9001C65.41 77.6901 66.04 78.3201 66.83 78.3201H85.95C87.45 78.3201 88.83 77.7601 89.88 76.8401C89.92 76.8101 89.95 76.7801 89.98 76.7501C91.19 75.6501 91.95 74.0801 91.95 72.3201V23.3401C91.94 20.0301 89.24 17.3401 85.94 17.3401Z" fill="#D0112B"/>
<path d="M56.53 71.1201C54.03 69.0301 51.57 68.1601 49.18 68.5401C45.39 69.1301 42.5301 72.7801 40.4201 76.0501C33.1001 78.2301 26.37 71.3001 25.08 69.8701C24.91 69.6901 24.7 69.4601 24.47 69.2101C22.12 66.7201 16.6901 60.9701 18.4501 54.5701C21.6801 52.4001 25.2701 49.4701 25.7901 45.6701C26.1201 43.2801 25.2001 40.8301 23.0701 38.3701C17.0801 31.4801 12.01 29.3601 8.00005 32.0901C4.54005 34.4401 0.610057 42.2401 0.950057 47.9901C1.30006 53.8501 3.55003 62.5301 18.05 77.7401C31.09 91.4201 39.12 93.4801 45.44 93.4801C46.14 93.4801 46.8201 93.4501 47.4801 93.4201C52.6801 93.1201 60.64 89.8501 63.11 86.0701C65.74 82.0101 63.53 76.9801 56.53 71.1201ZM60.72 84.5201C58.97 87.2001 52.08 90.3201 47.3 90.5901C42.65 90.8501 34.88 91.3001 20.09 75.7801C6.23004 61.2401 4.09003 53.2001 3.77003 47.8201C3.49003 43.1501 6.81003 36.3101 9.58003 34.4301C10.21 34.0001 10.9101 33.7901 11.6701 33.7901C14.1001 33.7901 17.1901 35.9401 20.9201 40.2201C22.5201 42.0601 23.1901 43.7101 22.9801 45.2701C22.5901 48.1401 19.07 50.7501 16.46 52.4701C16.19 52.6501 15.9901 52.9101 15.8901 53.2101C13.2101 61.3901 19.89 68.4701 22.4 71.1301C22.62 71.3701 22.82 71.5701 22.97 71.7401C24.51 73.4401 32.63 81.7501 41.81 78.5501C42.11 78.4401 42.3701 78.2401 42.5401 77.9701C44.2101 75.3301 46.76 71.7601 49.62 71.3101C51.18 71.0701 52.84 71.7101 54.71 73.2701C60.43 78.0801 62.45 81.8601 60.72 84.5201Z" fill="#D0112B"/>
<path d="M28.15 66.9101C28.46 66.9101 28.77 66.8101 29.03 66.6101L42.34 56.1101C42.95 55.6301 43.06 54.7301 42.57 54.1201C42.09 53.5101 41.19 53.4001 40.58 53.8901L27.27 64.3901C26.66 64.8701 26.55 65.7701 27.04 66.3801C27.32 66.7201 27.74 66.9101 28.15 66.9101Z" fill="#D0112B"/>
<path d="M53.86 37.48C58.62 37.48 63.12 35.6 66.53 32.19C67.08 31.64 67.08 30.74 66.53 30.19C65.98 29.64 65.08 29.64 64.53 30.19C61.65 33.07 57.87 34.65 53.87 34.65C45.41 34.65 38.53 27.52 38.53 18.76C38.53 10 45.41 2.87003 53.87 2.87003C62.33 2.87003 69.21 10 69.21 18.76C69.17 23.21 66.74 24.79 64.66 24.79C62.8 24.79 61.79 21.65 61.59 20.55C61.59 20.52 61.57 20.5 61.57 20.47C61.56 20.42 61.55 20.37 61.53 20.33C61.51 20.29 61.5 20.25 61.48 20.21C61.46 20.17 61.44 20.13 61.41 20.09C61.39 20.05 61.36 20.02 61.34 19.98C61.31 19.94 61.28 19.9 61.25 19.87C61.22 19.84 61.19 19.81 61.16 19.78C61.12 19.75 61.09 19.71 61.05 19.68C61.02 19.65 60.98 19.63 60.95 19.61C60.91 19.58 60.87 19.56 60.82 19.54C60.78 19.52 60.73 19.5 60.69 19.49C60.66 19.48 60.64 19.47 60.61 19.46C60.59 19.46 60.58 19.45 60.56 19.45C60.51 19.44 60.46 19.43 60.41 19.42C60.37 19.41 60.32 19.41 60.28 19.4C60.23 19.4 60.19 19.4 60.14 19.4C60.09 19.4 60.04 19.4 59.99 19.41C59.97 19.41 59.96 19.41 59.94 19.41C59.91 19.42 59.89 19.43 59.86 19.43C59.81 19.44 59.77 19.45 59.72 19.47C59.67 19.49 59.63 19.5 59.59 19.53C59.55 19.55 59.51 19.57 59.48 19.59C59.44 19.61 59.4 19.64 59.36 19.67C59.33 19.7 59.29 19.72 59.26 19.75C59.22 19.78 59.19 19.81 59.16 19.85C59.13 19.88 59.1 19.92 59.07 19.95C59.04 19.99 59.02 20.03 58.99 20.06C58.97 20.1 58.94 20.14 58.92 20.18C58.9 20.23 58.88 20.27 58.86 20.32C58.85 20.35 58.84 20.37 58.83 20.39C58.14 22.67 56.14 24.19 53.85 24.19C50.97 24.19 48.64 21.75 48.64 18.76C48.64 15.77 50.98 13.33 53.85 13.33C55.47 13.33 56.96 14.09 57.96 15.42C58.43 16.05 59.32 16.17 59.94 15.7C60.57 15.23 60.69 14.34 60.22 13.72C58.68 11.67 56.36 10.5 53.84 10.5C49.4 10.5 45.79 14.21 45.79 18.77C45.79 23.33 49.4 27.04 53.84 27.04C56.22 27.04 58.38 25.97 59.87 24.23C60.81 26.03 62.35 27.63 64.64 27.63C68.28 27.63 71.97 24.89 72.02 18.78C72.02 18.78 72.02 18.78 72.02 18.77C72.02 18.77 72.02 18.77 72.02 18.76C72.02 8.43003 63.86 0.0300293 53.84 0.0300293C43.82 0.0300293 35.66 8.43003 35.66 18.76C35.66 29.09 43.83 37.48 53.86 37.48Z" fill="#D0112B"/>
</svg>
