<svg width="133" height="86" viewBox="0 0 133 86" fill="none" xmlns="http://www.w3.org/2000/svg">
<path d="M131.06 62.44L97.34 63.7699C97.91 61.3799 98.21 58.93 98.21 56.45C98.21 41.32 87.52 28.64 73.29 25.56C73.29 25.55 73.29 25.54 73.29 25.53L68.37 2.13995C68.19 1.28995 67.46 0.699951 66.6 0.699951C65.74 0.699951 65.01 1.28995 64.83 2.13995L59.91 25.53C59.91 25.54 59.91 25.55 59.91 25.56C45.69 28.64 34.99 41.32 34.99 56.45C34.99 58.93 35.3 61.3799 35.86 63.7699L2.14001 62.44C1.75001 62.43 1.38001 62.57 1.10001 62.83C0.820006 63.1 0.660004 63.4699 0.660004 63.8499V76C0.660004 76.71 1.18999 77.32 1.89999 77.41L66.42 85.51C66.48 85.52 66.54 85.52 66.6 85.52C66.66 85.52 66.72 85.52 66.78 85.51L131.3 77.41C132.01 77.32 132.54 76.72 132.54 76V63.86C132.54 63.47 132.38 63.1099 132.1 62.8399C131.82 62.5699 131.46 62.43 131.06 62.44ZM66.6 7.49995L70.29 25.07C69.08 24.93 67.85 24.85 66.6 24.85C65.35 24.85 64.12 24.93 62.91 25.07L66.6 7.49995ZM129.7 74.75L66.6 82.67L3.5 74.75V65.33L36.68 66.64C37.32 68.52 38.13 70.34 39.11 72.06C39.5 72.74 40.36 72.98 41.04 72.59C41.72 72.2 41.96 71.34 41.57 70.66C39.12 66.35 37.82 61.44 37.82 56.45C37.82 40.58 50.73 27.68 66.59 27.68C82.45 27.68 95.36 40.59 95.36 56.45C95.36 61.44 94.06 66.35 91.61 70.66C91.22 71.34 91.46 72.21 92.14 72.59C92.36 72.72 92.6 72.78 92.84 72.78C93.33 72.78 93.81 72.52 94.07 72.06C95.05 70.33 95.86 68.51 96.5 66.64L129.68 65.33V74.75H129.7Z" fill="#D0112B"/>
<path d="M92.55 49.0799C92.09 43.9099 86.49 38.3499 86.25 38.1099C85.87 37.7399 85.32 37.6099 84.82 37.7699C84.75 37.7899 77.31 40.1399 66.6 40.1399C55.89 40.1399 48.45 37.7999 48.38 37.7699C47.88 37.6099 47.33 37.7399 46.95 38.1099C46.71 38.3399 41.11 43.9099 40.65 49.0799C40.61 49.5699 40.82 50.0499 41.22 50.3499C41.57 50.5999 49.86 56.5899 66.6 56.5899C83.34 56.5899 91.63 50.5999 91.98 50.3499C92.38 50.0499 92.59 49.5699 92.55 49.0799ZM66.6 53.7499C53.52 53.7499 45.86 49.8499 43.61 48.5099C44.26 45.6399 46.86 42.3599 48.37 40.7199C50.68 41.3599 57.43 42.9699 66.6 42.9699C75.77 42.9699 82.52 41.3599 84.83 40.7199C86.34 42.3599 88.94 45.6399 89.59 48.5099C87.34 49.8599 79.68 53.7499 66.6 53.7499Z" fill="#D0112B"/>
<path d="M131.12 53.52H107.38C106.53 40.89 100.95 33.01 96.41 28.63H131.12C131.9 28.63 132.54 28 132.54 27.21C132.54 26.42 131.91 25.79 131.12 25.79H93.06C91.61 24.74 90.6 24.21 90.44 24.13C89.56 23.68 88.56 23.61 87.62 23.91C86.68 24.22 85.92 24.87 85.47 25.75C84.55 27.56 85.28 29.79 87.02 30.67C87.15 30.75 100.11 38.76 100.11 56.85C100.11 58.89 101.77 60.54 103.8 60.54C105.83 60.54 107.49 58.88 107.49 56.85C107.49 56.68 107.48 56.52 107.48 56.35H131.11C131.89 56.35 132.53 55.72 132.53 54.93C132.53 54.14 131.9 53.52 131.12 53.52ZM103.81 57.72C103.34 57.72 102.95 57.34 102.95 56.86C102.95 37.22 88.53 28.27 88.38 28.19C87.96 27.98 87.79 27.46 88 27.04C88.1 26.84 88.28 26.68 88.5 26.61C88.59 26.58 88.68 26.57 88.77 26.57C88.9 26.57 89.03 26.6 89.16 26.66C89.31 26.74 90.32 27.27 91.75 28.33C91.78 28.35 91.81 28.38 91.85 28.4C96.3 31.76 104.68 40.29 104.68 56.85C104.67 57.33 104.28 57.72 103.81 57.72Z" fill="#D0112B"/>
<path d="M127.34 32.42V49.3C127.34 50.08 127.97 50.72 128.76 50.72C129.55 50.72 130.18 50.09 130.18 49.3V32.42C130.18 31.64 129.55 31 128.76 31C127.97 31 127.34 31.64 127.34 32.42Z" fill="#D0112B"/>
<path d="M120.02 32.42V46.75C120.02 47.53 120.65 48.17 121.44 48.17C122.23 48.17 122.86 47.54 122.86 46.75V32.42C122.86 31.64 122.23 31 121.44 31C120.65 31 120.02 31.64 120.02 32.42Z" fill="#D0112B"/>
<path d="M112.69 32.42V42.34C112.69 43.12 113.32 43.76 114.11 43.76C114.9 43.76 115.53 43.13 115.53 42.34V32.42C115.53 31.64 114.9 31 114.11 31C113.32 31 112.69 31.64 112.69 32.42Z" fill="#D0112B"/>
<path d="M105.37 32.42V37.7C105.37 38.48 106 39.12 106.79 39.12C107.58 39.12 108.21 38.49 108.21 37.7V32.42C108.21 31.64 107.58 31 106.79 31C106 31 105.37 31.64 105.37 32.42Z" fill="#D0112B"/>
</svg>
