<svg xmlns="http://www.w3.org/2000/svg" viewBox="0 0 234.33 98.33" width="234" height="98" fill="#d0112b">
    <path class="cls-1" d="M120.94,14.35l3.57-2.86C102.51-5.82,83,.81,77.48,3.58,49,17.92,68.63,45.08,105.06,25.88a54,54,0,0,0,7.17-5v0l7.19-5.27c-.52-.44-1.89-.29-3.83,1.1l-4,2.89-2.83.38-1.16.83,1.57.45C92.3,30.12,58.3,25.6,74.63,8.72,86.62-3.67,110.35,4.4,120.94,14.35Z" />
    <path class="cls-1" d="M146.45,35.81c-9.44-4.6-16.9-12.49-19.63-15.46l3.58-3.71a134.26,134.26,0,0,0,13.7,12C158,39.24,178.08,33,178,18.08,177.9,6.45,162.88-2,147,3.76A49,49,0,0,0,130.66,14.2c-.42.39-3.35,3.32-3.35,3.32S113.89,31.44,107.13,35.8c-11.5,8.9-30.58,11.44-45.42,6.37A52.64,52.64,0,0,0,82.34,41c9.09-2.34,20.34-9,28.18-15.37,3.26-2.65,5.64-4.67,7.39-6.18,1.32-1.14,4-3.45,6.29-5.35s5.31-4.2,6.41-5c25.85-17.57,51.53-6.63,56.79,7.75C192.88,31.81,174.73,49.62,146.45,35.81Z" />
    <path class="cls-1" d="M195.41,35.12c0,.44,0,.9-.08,1.41s-.1,1-.16,1.54a15.45,15.45,0,0,1-.25,1.54,10.86,10.86,0,0,1-.36,1.37,9.36,9.36,0,0,1-.64,1.6,5.71,5.71,0,0,1-.83,1.24,3.76,3.76,0,0,1-1,.81,2.64,2.64,0,0,1-1.22.29,2.27,2.27,0,0,1-.59-.06L190,44.8V42.38l.23.13a1.45,1.45,0,0,0,.52.1,2,2,0,0,0,1.24-.45,3.5,3.5,0,0,0,1-1.67,11,11,0,0,0,.36-1.69,14.82,14.82,0,0,0,.14-2,7.55,7.55,0,0,0-.15-1.55c-.1-.48-.22-1-.37-1.59h10.73V44.76h-3.62V35.12Z" />
    <path class="cls-1" d="M210.43,39.66a4.67,4.67,0,0,0,.43,1.8,3.85,3.85,0,0,0,.94,1.25,3.8,3.8,0,0,0,1.37.71,5.62,5.62,0,0,0,1.67.23,7.29,7.29,0,0,0,2.21-.3,9.07,9.07,0,0,0,1.56-.65,5,5,0,0,0,1.22-1v2.37a7.59,7.59,0,0,1-1.35.5,15.15,15.15,0,0,1-1.66.33,15.8,15.8,0,0,1-2.31.15,13,13,0,0,1-3-.34,7.86,7.86,0,0,1-2.55-1,5.38,5.38,0,0,1-1.76-1.82,5.23,5.23,0,0,1-.65-2.67,5.43,5.43,0,0,1,.53-2.41,5.27,5.27,0,0,1,1.51-1.85,7.19,7.19,0,0,1,2.36-1.2,10.67,10.67,0,0,1,3.11-.43A7,7,0,0,1,219,35a6.21,6.21,0,0,1,1.71,4.71ZM217,38.08a3.74,3.74,0,0,0-.75-2.54,2.66,2.66,0,0,0-2.12-.85,3.35,3.35,0,0,0-2.42.88,4.19,4.19,0,0,0-1.16,2.51Z" />
    <path class="cls-1" d="M229.78,44.76h-3.62V34.92l-4.52.7v-2h12.65v2l-4.51-.7Z" />
    <path class="cls-1" d="M44.42,72.84c0-4.69-5.84-8.5-15.8-8.5H27.19l2.93-2.8-4.35,0-7.18,2.78H7.15c-4,0-6.26,1-7.15,2.9H23.51c6.49,0,10.84,1,10.84,5.46,0,4.82-5.23,5.75-10.84,5.75H13L22.3,88.51c7.92,8.34,15.35,9.82,24.58,9.82l-16.65-17c8.83-.31,14.19-4,14.19-8.46Z" />
    <path class="cls-1" d="M73.88,83.56a18.59,18.59,0,0,1-4.3-.47V73.4a37.64,37.64,0,0,1,4.3-.25c4.08,0,6.47,1.65,6.47,5.09s-2.55,5.32-6.47,5.32Zm.61-12.5c-3.44,0-6.78.41-10.36.55V91.08h5.45V85.4c1.56.14,3.28.25,4.91.25,7.33,0,12-2.16,12-7.41s-4.63-7.18-12-7.18Z" />
    <path class="cls-1" d="M105.12,89.49c-4.32,0-7.32-3.17-7.32-8.18s3-8.26,7.32-8.26,7.33,3.27,7.33,8.26-3,8.18-7.33,8.18Zm0-18.53C97.05,71,91.7,75.17,91.7,81.31s5.35,10.27,13.42,10.27,13.43-4.15,13.43-10.27S113.2,71,105.12,71Z" />
    <polygon class="cls-1" points="198.04 71.58 185.95 87 185.95 71.58 180.49 71.58 180.49 91.16 182.67 91.16 185.95 91.16 198.04 75.72 198.04 91.16 203.49 91.16 203.49 71.58 201.28 71.58 198.04 71.58" />
    <path class="cls-1" d="M138.55,73.12a10.7,10.7,0,0,1,6.74,2.25l1.13-2.89A21.38,21.38,0,0,0,137.87,71c-7.77,0-13.22,4.21-13.22,10.34s5.11,10.28,13.56,10.28A18.51,18.51,0,0,0,146.39,90V86.85s-2.53,2.39-7.6,2.39-8-3-8-7.94,2.94-8.18,7.81-8.18Z" />
    <path class="cls-1" d="M228.88,82.25H223.8c-3.54,0-5.69-1.69-5.69-4.72s2.15-4.38,5.69-4.38a39.73,39.73,0,0,1,5.08.34Zm-5.69-11.19c-6.61,0-11.18,1.65-11.18,6.5,0,3.21,1.86,5.1,5.11,6l-7.26,7.87h.68c5,0,7.43-1,10.64-4.89l1.9-2.29h5.8v6.81h5.45V71.59c-4.6-.13-7.7-.53-11.14-.53Z" />
    <path class="cls-1" d="M165.09,73.12a10.72,10.72,0,0,1,6.75,2.25L173,72.48A21.38,21.38,0,0,0,164.41,71c-7.77,0-13.22,4.21-13.22,10.34s5.11,10.28,13.56,10.28A18.51,18.51,0,0,0,172.93,90V86.85s-2.52,2.39-7.6,2.39-8-3-8-7.94,2.93-8.18,7.8-8.18Z" />
</svg>